<svg width="24" height="24" viewBox="0 0 24 24" fill="none" xmlns="http://www.w3.org/2000/svg">
<path d="M12.0001 7.19295C9.33995 7.19295 7.19308 9.33983 7.19308 12C7.19308 14.6601 9.33995 16.807 12.0001 16.807C14.6603 16.807 16.8071 14.6601 16.8071 12C16.8071 9.33983 14.6603 7.19295 12.0001 7.19295ZM12.0001 15.1242C10.2798 15.1242 8.87589 13.7203 8.87589 12C8.87589 10.2797 10.2798 8.87576 12.0001 8.87576C13.7204 8.87576 15.1243 10.2797 15.1243 12C15.1243 13.7203 13.7204 15.1242 12.0001 15.1242ZM17.004 5.87576C16.3829 5.87576 15.8814 6.37733 15.8814 6.99842C15.8814 7.61951 16.3829 8.12108 17.004 8.12108C17.6251 8.12108 18.1267 7.62186 18.1267 6.99842C18.1269 6.85094 18.0979 6.70487 18.0416 6.56858C17.9852 6.43229 17.9026 6.30845 17.7983 6.20417C17.694 6.09988 17.5701 6.0172 17.4339 5.96084C17.2976 5.90449 17.1515 5.87558 17.004 5.87576ZM21.3704 12C21.3704 10.7062 21.3821 9.4242 21.3095 8.1328C21.2368 6.6328 20.8946 5.30155 19.7978 4.20467C18.6985 3.10545 17.3696 2.76561 15.8696 2.69295C14.5759 2.6203 13.2939 2.63201 12.0025 2.63201C10.7087 2.63201 9.42667 2.6203 8.13527 2.69295C6.63527 2.76561 5.30402 3.1078 4.20714 4.20467C3.10792 5.30389 2.76808 6.6328 2.69542 8.1328C2.62277 9.42655 2.63449 10.7086 2.63449 12C2.63449 13.2914 2.62277 14.5758 2.69542 15.8672C2.76808 17.3672 3.11027 18.6984 4.20714 19.7953C5.30636 20.8945 6.63527 21.2344 8.13527 21.307C9.42902 21.3797 10.711 21.368 12.0025 21.368C13.2962 21.368 14.5782 21.3797 15.8696 21.307C17.3696 21.2344 18.7009 20.8922 19.7978 19.7953C20.897 18.6961 21.2368 17.3672 21.3095 15.8672C21.3845 14.5758 21.3704 13.2937 21.3704 12ZM19.3079 17.5265C19.1368 17.9531 18.9306 18.2719 18.6001 18.6C18.2696 18.9305 17.9532 19.1367 17.5267 19.3078C16.2939 19.7976 13.3665 19.6875 12.0001 19.6875C10.6337 19.6875 7.70402 19.7976 6.47121 19.3101C6.04464 19.139 5.72589 18.9328 5.39777 18.6023C5.0673 18.2719 4.86105 17.9555 4.68996 17.5289C4.20246 16.2937 4.31261 13.3664 4.31261 12C4.31261 10.6336 4.20246 7.70389 4.68996 6.47108C4.86105 6.04451 5.0673 5.72576 5.39777 5.39764C5.72824 5.06951 6.04464 4.86092 6.47121 4.68983C7.70402 4.20233 10.6337 4.31248 12.0001 4.31248C13.3665 4.31248 16.2962 4.20233 17.529 4.68983C17.9556 4.86092 18.2743 5.06717 18.6025 5.39764C18.9329 5.72811 19.1392 6.04451 19.3103 6.47108C19.7978 7.70389 19.6876 10.6336 19.6876 12C19.6876 13.3664 19.7978 16.2937 19.3079 17.5265Z" fill="#506477"/>
</svg>
